<?xml version="1.0" encoding="UTF-8"?>
<svg id="Calque_2" data-name="Calque 2" xmlns="http://www.w3.org/2000/svg" viewBox="0 0 318.5 137.81">
  <defs>
    <style>
      .cls-1 {
        fill: #0a0d16;
      }

      .cls-2 {
        fill: #ffd36b;
      }
    </style>
  </defs>
  <g id="Calque_1-2" data-name="Calque 1">
    <g>
      <path class="cls-2" d="M24,0h272.48C308.63,0,318.5,9.86,318.5,22.01v91.8c0,13.25-10.75,24-24,24H24C10.75,137.81,0,127.06,0,113.81V24C0,10.75,10.75,0,24,0Z"/>
      <g>
        <path class="cls-1" d="M65.82,28.57v50.25c9.37-5.41,21.43-1.95,26.46,7.76,4.46,8.62,1.54,19.53-6.64,24.77-9.22,5.9-21.38,2.86-26.79-6.51-1.68-2.92-2.56-6.23-2.55-9.59v-47.63h-19.05v-19.05M44.38,109.54c4.45,0,7.95-4.06,6.98-8.68-.56-2.7-2.75-4.88-5.45-5.45-4.62-.96-8.68,2.54-8.68,6.98,0,3.95,3.2,7.14,7.14,7.14"/>
        <path class="cls-1" d="M242.81,119.01h9.61v-50.75c2.91,1.74,6.23,2.67,9.61,2.69,10.62,0,19.22-8.61,19.22-19.22s-8.61-19.22-19.22-19.22-19.22,8.61-19.22,19.22v67.28ZM262.03,42.12c5.31,0,9.61,4.3,9.61,9.61s-4.3,9.61-9.61,9.61-9.61-4.3-9.61-9.61,4.3-9.61,9.61-9.61"/>
        <path class="cls-1" d="M157.21,102.85c-6.36,0-11.52-5.16-11.52-11.52s5.16-11.52,11.52-11.52,11.52,5.16,11.52,11.52-5.16,11.52-11.52,11.52M157.21,114.37c12.72,0,23.04-10.31,23.04-23.04s-10.31-23.04-23.04-23.04-23.04,10.31-23.04,23.04,10.31,23.04,23.04,23.04"/>
        <path class="cls-1" d="M209.77,84.22c-6.36,0-11.52-5.16-11.52-11.52s5.16-11.52,11.52-11.52,11.52,5.16,11.52,11.52-5.16,11.52-11.52,11.52M209.77,95.73c12.72,0,23.04-10.31,23.04-23.04s-10.31-23.04-23.04-23.04-23.04,10.31-23.04,23.04,10.31,23.04,23.04,23.04"/>
        <path class="cls-1" d="M108.26,114.37V31.94c3.14-.56,7.96-1.01,12-1.01v83.44h-12Z"/>
      </g>
    </g>
  </g>
</svg>