<?xml version="1.0" encoding="UTF-8"?>
<svg id="Calque_2" data-name="Calque 2" xmlns="http://www.w3.org/2000/svg" viewBox="0 0 244.02 90.44">
  <defs>
    <style>
      .cls-1 {
        fill: #fff;
      }
    </style>
  </defs>
  <g id="Calque_1-2" data-name="Calque 1">
    <g>
      <path class="cls-1" d="M28.58,0v50.25c9.37-5.41,21.43-1.95,26.46,7.76,4.46,8.62,1.54,19.53-6.64,24.77-9.22,5.9-21.38,2.86-26.79-6.51-1.68-2.92-2.56-6.23-2.55-9.59V19.05H0V0M7.14,80.97c4.45,0,7.95-4.06,6.98-8.68-.56-2.7-2.75-4.88-5.45-5.45-4.62-.96-8.68,2.54-8.68,6.98,0,3.95,3.2,7.14,7.14,7.14"/>
      <path class="cls-1" d="M205.57,90.44h9.61v-50.75c2.91,1.74,6.23,2.67,9.61,2.69,10.62,0,19.22-8.61,19.22-19.22s-8.61-19.22-19.22-19.22-19.22,8.61-19.22,19.22v67.28ZM224.79,13.55c5.31,0,9.61,4.3,9.61,9.61s-4.3,9.61-9.61,9.61-9.61-4.3-9.61-9.61,4.3-9.61,9.61-9.61"/>
      <path class="cls-1" d="M119.97,74.28c-6.36,0-11.52-5.16-11.52-11.52s5.16-11.52,11.52-11.52,11.52,5.16,11.52,11.52-5.16,11.52-11.52,11.52M119.97,85.8c12.72,0,23.04-10.31,23.04-23.04s-10.31-23.04-23.04-23.04-23.04,10.31-23.04,23.04,10.31,23.04,23.04,23.04"/>
      <path class="cls-1" d="M172.53,55.64c-6.36,0-11.52-5.16-11.52-11.52s5.16-11.52,11.52-11.52,11.52,5.16,11.52,11.52-5.16,11.52-11.52,11.52M172.53,67.16c12.72,0,23.04-10.31,23.04-23.04s-10.31-23.04-23.04-23.04-23.04,10.31-23.04,23.04,10.31,23.04,23.04,23.04"/>
      <path class="cls-1" d="M71.02,85.8V3.37c3.14-.56,7.96-1.01,12-1.01v83.44h-12Z"/>
    </g>
  </g>
</svg>